HIERARCHY
ROOT Hips
{
	OFFSET 0.000000 0.000000 0.000000
	CHANNELS 6 Xposition Yposition Zposition Zrotation Yrotation Xrotation 
	JOINT LHipJoint
	{
		OFFSET 0.000000 0.000000 0.000000
		CHANNELS 3 Zrotation Yrotation Xrotation
		JOINT LeftUpLeg
		{
			OFFSET 1.363060 -1.794630 0.839290
			CHANNELS 3 Zrotation Yrotation Xrotation
			JOINT LeftLeg
			{
				OFFSET 2.448110 -6.726130 0.000000
				CHANNELS 3 Zrotation Yrotation Xrotation
				JOINT LeftFoot
				{
					OFFSET 2.562200 -7.039590 0.000000
					CHANNELS 3 Zrotation Yrotation Xrotation
					JOINT LeftToeBase
					{
						OFFSET 0.157640 -0.433110 2.322550
						CHANNELS 3 Zrotation Yrotation Xrotation
						End Site
						{
							OFFSET 0.000000 0.000000 0.000000
						}
					}
				}
			}
		}
	}
	JOINT RHipJoint
	{
		OFFSET 0.000000 0.000000 0.000000
		CHANNELS 3 Zrotation Yrotation Xrotation
		JOINT RightUpLeg
		{
			OFFSET -1.305520 -1.794630 0.839290
			CHANNELS 3 Zrotation Yrotation Xrotation
			JOINT RightLeg
			{
				OFFSET -2.542530 -6.985550 0.000000
				CHANNELS 3 Zrotation Yrotation Xrotation
				JOINT RightFoot
				{
					OFFSET -2.568260 -7.056230 0.000000
					CHANNELS 3 Zrotation Yrotation Xrotation
					JOINT RightToeBase
					{
						OFFSET -0.164730 -0.452590 2.363150
						CHANNELS 3 Zrotation Yrotation Xrotation
						End Site
						{
							OFFSET 0.000000 0.000000 0.000000
						}
					}
				}
			}
		}
	}
}
MOTION
Frames: 25
Frame Time: 0.008333
0.657755 17.461049 0.522512 -175.107282 -61.437546 -164.875488 -12.561821 4.434037 0.866977 -13.101011 35.255647 -23.310401 -3.976035 -1.261118 -3.696237 1.433379 12.067643 6.462798 3.045100 -0.000001 -53.392600 8.160871 -2.709633 7.740980 4.418709 5.933088 -22.714738 3.980587 2.211685 -2.110959 1.553136 5.580541 10.650667 0.722200 0.000000 -70.896000
0.649579 17.456853 0.518093 -175.292956 -60.648149 -164.883793 -12.610469 4.449745 0.707975 -13.002128 35.905583 -22.756099 -3.998777 -1.266713 -3.965224 1.399875 11.990921 6.687450 3.052300 0.000000 -53.840200 8.139711 -2.746604 7.865745 4.195528 6.531509 -22.658939 3.922301 2.172961 -1.975762 1.525376 5.482383 10.485952 0.690100 0.000001 -70.955401
0.645593 17.451696 0.512735 -175.497394 -59.858542 -164.901639 -12.644771 4.451329 0.537135 -12.842984 36.434715 -22.185793 -4.002849 -1.260654 -4.038642 1.393630 12.088366 6.771594 3.077700 -0.000000 -54.164300 8.126710 -2.773126 7.966957 3.971824 7.139818 -22.566925 3.853284 2.129366 -1.815602 1.485909 5.328026 10.255717 0.638500 -0.000001 -70.970100
0.646456 17.445899 0.508014 -175.735145 -59.105102 -164.947506 -12.666560 4.443618 0.355119 -12.613068 36.831819 -21.550203 -3.984647 -1.243920 -3.952956 1.414219 12.363797 6.731034 3.124800 -0.000000 -54.361300 8.126505 -2.785275 8.025928 3.746217 7.704492 -22.396391 3.773822 2.079532 -1.622444 1.438353 5.151228 9.959416 0.579300 -0.000000 -70.959400
0.650024 17.439117 0.503507 -176.006243 -58.453812 -164.953388 -12.667313 4.426814 0.185780 -12.406380 37.073106 -21.006876 -3.956498 -1.219832 -3.667188 1.455565 12.757263 6.538803 3.173200 -0.000001 -54.414400 8.136189 -2.790457 8.064368 3.512804 8.219854 -22.233980 3.687874 2.029369 -1.402986 1.382106 4.930143 9.602442 0.505299 0.000000 -70.917900
0.655628 17.431412 0.500112 -176.318267 -57.933439 -164.919797 -12.649822 4.404613 0.036810 -12.236313 37.160669 -20.546247 -3.918817 -1.192038 -3.226205 1.514707 13.247942 6.219838 3.219500 0.000000 -54.334900 8.156033 -2.791493 8.080443 3.268127 8.654579 -22.076072 3.596927 1.978523 -1.150203 1.320728 4.692465 9.188777 0.426700 0.000000 -70.864300
0.661851 17.422751 0.498192 -176.671753 -57.565904 -164.832797 -12.616615 4.379820 -0.077714 -12.134534 37.101457 -20.204626 -3.875615 -1.164284 -2.660634 1.587320 13.798166 5.791145 3.254600 0.000000 -54.137600 8.182047 -2.793941 8.085468 3.011269 8.997456 -21.952011 3.504197 1.928577 -0.860565 1.256879 4.450978 8.726541 0.347800 -0.000000 -70.809400
0.667385 17.413100 0.498224 -177.056464 -57.350360 -164.692301 -12.572380 4.354866 -0.153436 -12.111326 36.917093 -19.986117 -3.829841 -1.138867 -2.015671 1.669212 14.373144 5.279700 3.272201 0.000000 -53.843700 8.211426 -2.798818 8.083556 2.745088 9.241282 -21.876541 3.412900 1.880144 -0.529483 1.193861 4.224720 8.226479 0.274800 0.000000 -70.763800
0.671376 17.402588 0.500556 -177.461317 -57.265305 -164.506589 -12.522737 4.332814 -0.193965 -12.161617 36.643352 -19.873860 -3.784537 -1.116143 -1.339806 1.755792 14.938321 4.716781 3.268200 -0.000001 -53.481000 8.242273 -2.803043 8.073587 2.475187 9.384072 -21.852678 3.326200 1.833460 -0.152150 1.135408 4.035254 7.699754 0.213900 0.000000 -70.737800
0.672883 17.391427 0.505398 -177.868209 -57.280180 -164.287161 -12.474170 4.317059 -0.202457 -12.275022 36.314712 -19.850678 -3.742690 -1.096243 -0.677491 1.842601 15.463958 4.131586 3.241101 0.000000 -53.077799 8.271213 -2.804054 8.056644 2.209958 9.433207 -21.883127 3.247610 1.789582 0.269672 1.084502 3.894582 7.162994 0.167800 0.000000 -70.733700
0.671597 17.379948 0.512702 -178.265786 -57.362671 -164.049779 -12.431730 4.310110 -0.186574 -12.432322 35.969329 -19.884412 -3.706907 -1.079017 -0.068030 1.924417 15.923354 3.555045 3.192700 0.000001 -52.663900 8.296640 -2.799827 8.031657 1.957352 9.397187 -21.958185 3.179074 1.748655 0.729732 1.043292 3.811946 6.631082 0.138200 0.000000 -70.751700
0.667258 17.368552 0.522150 -178.641247 -57.485839 -163.808817 -12.398784 4.312636 -0.153057 -12.613028 35.638011 -19.947771 -3.679085 -1.064792 0.460404 1.996513 16.296841 3.011809 3.126599 -0.000000 -52.268100 8.317140 -2.790503 8.000092 1.725810 9.290464 -22.067490 3.121570 1.710925 1.215304 1.012247 3.785624 6.118416 0.123700 -0.000000 -70.787600
0.659960 17.357519 0.533407 -178.980967 -57.629626 -163.580998 -12.376282 4.323307 -0.109258 -12.797471 35.343613 -20.016680 -3.660020 -1.053854 0.892395 2.055006 16.571508 2.520085 3.047700 -0.000000 -51.916000 8.332527 -2.777125 7.963649 1.522793 9.129885 -22.198558 3.074928 1.676320 1.709479 0.990315 3.805796 5.636725 0.121000 -0.000000 -70.834801
0.649957 17.347077 0.545905 -179.275840 -57.782024 -163.376567 -12.362963 4.339228 -0.061845 -12.968688 35.099179 -20.075121 -3.649658 -1.046365 1.226846 2.097450 16.742263 2.089084 2.960100 -0.000000 -51.626800 8.343726 -2.761482 7.924591 1.353224 8.933733 -22.339319 3.037868 1.644663 2.194452 0.975154 3.856402 5.192283 0.125700 -0.000000 -70.885700
0.637835 17.337395 0.559360 -179.514139 -57.938283 -163.211093 -12.356847 4.356130 -0.017667 -13.108957 34.909454 -20.111059 -3.646618 -1.041769 1.475007 2.123182 16.811677 1.719231 2.867000 0.000000 -51.411000 8.351670 -2.744999 7.883601 1.222622 8.720538 -22.473189 3.008824 1.615889 2.650356 0.963395 3.914711 4.790571 0.132400 -0.000000 -70.936100
0.623976 17.328419 0.573057 -179.699415 -58.102446 -163.075678 -12.353117 4.370299 0.022200 -13.218582 34.756695 -20.126962 -3.648650 -1.040627 1.654142 2.134584 16.798769 1.404770 2.773000 0.000000 -51.266100 8.359384 -2.729515 7.843186 1.126225 8.501413 -22.602646 2.985126 1.589300 3.071693 0.951837 3.964572 4.421926 0.137200 0.000000 -70.971300
0.609180 17.320094 0.586593 -179.837837 -58.282956 -162.965903 -12.347666 4.377940 0.057291 -13.294797 34.616117 -20.123555 -3.652284 -1.042784 1.786413 2.135727 16.729301 1.133601 2.681300 0.000000 -51.176600 8.369236 -2.715822 7.803125 1.060941 8.284183 -22.722566 2.964334 1.564422 3.452240 0.937213 3.987856 4.079484 0.136601 -0.000000 -70.986600
0.594090 17.312367 0.600218 -179.926022 -58.489681 -162.891089 -12.339611 4.375444 0.085801 -13.324897 34.468415 -20.099714 -3.654016 -1.046547 1.899406 2.130798 16.625294 0.886398 2.590900 0.000000 -51.123300 8.380934 -2.703368 7.759674 1.030030 8.075201 -22.814992 2.945417 1.541770 3.781482 0.916723 3.965901 3.763154 0.126800 -0.000000 -70.987200
0.579073 17.305058 0.613816 -179.974773 -58.738585 -162.838441 -12.326090 4.361273 0.113301 -13.316410 34.273909 -20.063736 -3.649781 -1.052146 2.012815 2.126217 16.522279 0.644652 2.504000 0.000000 -51.075300 8.396027 -2.691847 7.711229 1.027157 7.868955 -22.884318 2.926788 1.520997 4.066296 0.888765 3.892434 3.461448 0.107000 -0.000001 -70.971900
0.564520 17.297919 0.626817 179.988853 -59.048924 -162.778603 -12.302638 4.335373 0.147587 -13.286388 33.990230 -20.028012 -3.636371 -1.060435 2.141810 2.128110 16.454565 0.393441 2.423000 -0.000000 -51.000000 8.417906 -2.680695 7.656994 1.040293 7.652633 -22.945192 2.906199 1.501040 4.323616 0.852463 3.769009 3.156285 0.077800 0.000001 -70.937000
0.550308 17.290836 0.640164 179.974552 -59.434566 -162.724465 -12.272034 4.297648 0.192801 -13.226644 33.596153 -19.993463 -3.610834 -1.070232 2.299296 2.140626 16.439676 0.113272 2.344700 -0.000000 -50.874000 8.443859 -2.668285 7.591349 1.076438 7.415294 -22.984720 2.885037 1.482948 4.553263 0.807800 3.593419 2.850956 0.039400 0.000001 -70.897900
0.536609 17.283582 0.653402 179.956279 -59.913621 -162.648981 -12.231484 4.249746 0.256650 -13.154307 33.063481 -19.973586 -3.572150 -1.082246 2.490150 2.167049 16.493001 -0.204144 2.269200 -0.000000 -50.676100 8.476273 -2.653494 7.513020 1.127603 7.137761 -23.019067 2.862345 1.465807 4.774463 0.755289 3.374786 2.531779 -0.006100 0.000000 -70.854600
0.523095 17.276069 0.667168 179.938465 -60.500582 -162.557138 -12.183011 4.193321 0.343837 -13.068998 32.383050 -19.972754 -3.519933 -1.096084 2.714520 2.208249 16.613246 -0.564860 2.193300 0.000000 -50.398500 8.513675 -2.635149 7.418300 1.198659 6.801940 -23.047602 2.839800 1.449995 4.994173 0.696077 3.120299 2.199226 -0.056499 -0.000000 -70.816100
0.509440 17.268189 0.681513 179.916090 -61.208681 -162.440800 -12.127779 4.130381 0.458923 -12.974681 31.552995 -20.003101 -3.455822 -1.111548 2.971133 2.262879 16.786258 -0.969011 2.113700 0.000000 -50.043000 8.555036 -2.612937 7.306092 1.293709 6.391178 -23.076721 2.818894 1.436002 5.218071 0.631211 2.836691 1.853067 -0.110100 0.000000 -70.785400
0.495521 17.260103 0.697296 179.899584 -62.044124 -162.323094 -12.070619 4.063013 0.599474 -12.854354 30.594839 -20.047308 -3.381245 -1.127606 3.244368 2.326475 16.984785 -1.405000 2.027700 0.000000 -49.630200 8.598105 -2.586009 7.168866 1.425367 5.884247 -23.084746 2.802499 1.424202 5.440261 0.563285 2.536743 1.505967 -0.164100 0.000000 -70.773000
